<svg width="30" height="30" viewBox="0 0 30 30" fill="none" xmlns="http://www.w3.org/2000/svg">
<path d="M11.6639 20.8268C13.6971 20.8263 15.6717 20.1457 17.2733 18.8933L22.3089 23.9286L23.9286 22.3089L18.893 17.2737C20.1462 15.672 20.8273 13.697 20.8277 11.6634C20.8277 6.61092 16.7166 2.5 11.6639 2.5C6.61114 2.5 2.5 6.61092 2.5 11.6634C2.5 16.7158 6.61114 20.8268 11.6639 20.8268ZM11.6639 4.79085C15.4543 4.79085 18.5368 7.87318 18.5368 11.6634C18.5368 15.4536 15.4543 18.5359 11.6639 18.5359C7.87347 18.5359 4.79097 15.4536 4.79097 11.6634C4.79097 7.87318 7.87347 4.79085 11.6639 4.79085Z" fill="white"/>
<path d="M14.2975 10.8992C14.7713 11.3742 15.0325 12.0017 15.0325 12.6667H17.5325C17.5336 12.0098 17.4045 11.3591 17.1526 10.7523C16.9007 10.1456 16.5311 9.59476 16.065 9.13173C14.1725 7.24173 10.8913 7.24173 9 9.13173L10.765 10.9017C11.715 9.95423 13.3525 9.95673 14.2975 10.8992Z" fill="white"/>
</svg>
